<svg xmlns="http://www.w3.org/2000/svg" viewBox="0 0 200 200" width="200" height="200">
  <!-- Background circle -->
  <circle cx="100" cy="100" r="100" fill="white"/>
  
  <!-- Yellow/lime green left section -->
  <path d="M 100 100 L 100 0 A 100 100 0 0 0 10 170 Z" fill="#ddf084"/>
  
  <!-- Light blue/cyan bottom-right section -->
  <path d="M 100 100 L 10 170 A 100 100 0 0 0 190 170 Z" fill="#a8dce6"/>
  
  <!-- Pink top-right section (behind P) -->
  <path d="M 100 100 L 100 0 A 100 100 0 0 1 190 170 L 100 100 Z" fill="#f5b4dc"/>
  
  <!-- Black P letter -->
  <!-- Vertical bar of P -->
  <rect x="88" y="35" width="24" height="130" fill="black" rx="2"/>
  
  <!-- Rounded part of P (arc) -->
  <path d="M 112 35 L 145 35 Q 180 35 180 75 Q 180 115 145 115 L 112 115" 
        fill="none" 
        stroke="black" 
        stroke-width="24" 
        stroke-linecap="round" 
        stroke-linejoin="round"/>
  
  <!-- Pink fill inside P arc -->
  <path d="M 112 47 L 140 47 Q 168 47 168 75 Q 168 103 140 103 L 112 103 Z" fill="#f5b4dc"/>
  
  <!-- Outer black circle border -->
  <circle cx="100" cy="100" r="95" fill="none" stroke="black" stroke-width="10"/>
</svg>
